<?xml version="1.0" encoding="utf-8"?>
<!-- Generator: Adobe Illustrator 19.2.1, SVG Export Plug-In . SVG Version: 6.00 Build 0)  -->
<svg version="1.1" id="Layer_1" xmlns="http://www.w3.org/2000/svg" xmlns:xlink="http://www.w3.org/1999/xlink" x="0px" y="0px"
	 viewBox="0 0 512 512" style="enable-background:new 0 0 512 512;" xml:space="preserve">
<style type="text/css">
	.st0{fill:#6F6F6F;}
	.st1{fill:#D2D2D2;}
	.st2{fill:#4A4A4A;}
	.st3{fill:#FDFDFD;}
	.st4{fill:#FFFFFF;}
	.st5{fill:#727272;}
</style>
<g>
	<path class="st0" d="M0,0h512v512H0V0z"/>
	<path class="st1" d="M261.4,405.4l229.9-149.2L260,106.6l-230.6,150L261.4,405.4L261.4,405.4z"/>
	<path class="st2" d="M361.5,256c0,53.6-43.5,97.1-97.3,97.1S167,309.6,167,256s43.5-97.1,97.2-97.1S361.5,202.4,361.5,256
		L361.5,256z"/>
	<path class="st3" d="M232.3,314.2l-3-1.7l-3.1,1.5l0.7-3.5l-2.4-2.5l3.4-0.4l1.6-3.1l1.4,3.2l3.4,0.6l-2.6,2.4 M297.5,330.7l-3-1.7
		l-3.1,1.5l0.7-3.5l-2.4-2.5l3.4-0.4l1.6-3.1l1.4,3.2l3.4,0.6l-2.5,2.4 M269.4,304.3l-2.6-1.5l-2.7,1.3l0.6-3l-2.1-2.2l3-0.3
		l1.4-2.7l1.2,2.8l2.9,0.5l-2.2,2.1 M335.2,294.8l-2.5-1.5l-2.6,1.3l0.6-2.9l-2-2.2l2.9-0.3l1.4-2.6l1.2,2.7l2.9,0.5l-2.2,2
		 M268.2,275.1l-3-1.7l-3.1,1.5l0.7-3.5l-2.4-2.5l3.4-0.4l1.6-3.1l1.4,3.2l3.4,0.6l-2.5,2.4 M187.9,245l-3-1.7l-3.1,1.5l0.7-3.5
		l-2.4-2.5l3.4-0.4l1.6-3.1l1.4,3.2l3.4,0.6l-2.6,2.4 M197.6,285l-3-1.7l-3.1,1.5l0.7-3.5l-2.4-2.5l3.4-0.4l1.6-3.1l1.4,3.2l3.4,0.6
		l-2.6,2.4 M297.7,230.2l-2.7-1.5l-2.8,1.4l0.6-3.1l-2.1-2.2l3-0.4l1.4-2.7l1.3,2.8l3,0.5l-2.3,2.1 M292.2,256.3l-2.1-1.2l-2.2,1.1
		l0.5-2.4l-1.7-1.8l2.4-0.3l1.1-2.2l1,2.2l2.4,0.4l-1.8,1.7 M183.5,292.3l-2-1.2l-2.1,1l0.5-2.3l-1.6-1.7l2.3-0.3l1.1-2.1l1,2.1
		l2.3,0.4l-1.7,1.6 M335.8,301.5l-1.6-0.9l-1.7,0.8l0.4-1.7l-1.3-1.3l1.9-0.2l0.9-1.6l0.8,1.6l1.9,0.3l-1.4,1.2"/>
	<path class="st3" d="M183.5,292.3l-2-1.2l-2.1,1l0.5-2.3l-1.6-1.7l2.3-0.3l1.1-2.1l1,2.1l2.3,0.4l-1.7,1.6"/>
	<path class="st3" d="M183.5,292.3l-2-1.2l-2.1,1l0.5-2.3l-1.6-1.7l2.3-0.3l1.1-2.1l1,2.1l2.3,0.4l-1.7,1.6 M215.4,292.3l-2-1.2
		l-2.1,1l0.5-2.3l-1.6-1.7l2.3-0.3l1.1-2.1l1,2.1l2.3,0.4l-1.7,1.6 M211.4,302.9l-2-1.2l-2.1,1l0.5-2.3l-1.6-1.7l2.3-0.3l1.1-2.1
		l1,2.1l2.3,0.4l-1.7,1.6 M277.7,283.6l-2-1.2l-2.1,1l0.5-2.3l-1.6-1.7l2.3-0.3l1.1-2.1l1,2.1l2.3,0.4l-1.7,1.6 M258.3,283.6l-2-1.2
		l-2.1,1l0.5-2.3l-1.6-1.7l2.3-0.3l1.1-2.1l1,2.1l2.3,0.4l-1.7,1.6 M205.5,276.8l-1.3-0.7l-1.3,0.6l0.3-1.5l-1-1.1l1.4-0.2l0.7-1.3
		l0.6,1.3l1.4,0.3l-1.1,1 M333.3,309.9l-2-1.2l-2.1,1l0.5-2.3l-1.6-1.7l2.3-0.3l1.1-2.1l1,2.1l2.3,0.4l-1.7,1.6 M317.1,312l-1.7-1
		l-1.7,0.9l0.4-1.9l-1.3-1.4l1.9-0.2l0.9-1.7l0.8,1.8l1.9,0.3l-1.4,1.3 M324.7,311.9l-1.5-0.9l-1.6,0.8l0.4-1.8l-1.2-1.3l1.8-0.2
		l0.8-1.6l0.7,1.7l1.8,0.3l-1.3,1.2 M346.7,292.7l-1.5-0.9l-1.5,0.8l0.3-1.7l-1.2-1.3l1.7-0.2l0.8-1.5l0.7,1.6l1.7,0.3l-1.3,1.2
		 M316.9,322.9l-1.9-1.1l-2,0.9l0.5-2.1l-1.6-1.6l2.2-0.2l1-1.9l0.9,2l2.2,0.4l-1.7,1.5 M317,331.6l-1.8-1.1l-1.8,0.9l0.4-2.1
		l-1.4-1.6l2-0.2l1-1.9l0.9,2l2,0.4l-1.5,1.5 M302.3,311.9l-1.5-0.9l-1.5,0.8l0.3-1.7l-1.2-1.3l1.7-0.2l0.8-1.5l0.7,1.6l1.7,0.3
		l-1.3,1.2 M288.5,311.9L287,311l-1.5,0.8l0.3-1.7l-1.2-1.3l1.7-0.2l0.8-1.5l0.7,1.6l1.7,0.3l-1.3,1.2 M265.1,291.4l-1.5-0.9
		l-1.5,0.8l0.3-1.7l-1.2-1.3l1.7-0.2l0.8-1.5l0.7,1.6l1.7,0.3l-1.3,1.2 M267.7,333.1l-1.3-0.7l-1.3,0.6l0.3-1.5l-1-1.1l1.4-0.2
		l0.7-1.3l0.6,1.4l1.4,0.3l-1.1,1 M232.3,265.6l-3-1.7l-3.1,1.5l0.7-3.5l-2.4-2.5l3.4-0.4l1.6-3.1l1.4,3.2l3.4,0.6l-2.6,2.4"/>
	<path class="st4" d="M355.1,290.9c1.5-3.9,3.4-9.7,4.4-15.1c-51.7-45.4-109.2-68.6-182-63.8c-2.6,5-4.7,10.2-6.5,15.9
		C257.3,219.7,320.5,257.9,355.1,290.9L355.1,290.9z"/>
	<path class="st5" d="M331.9,265.4l1.8,1c-0.3,0.7-0.4,1.2-0.2,1.7c0.1,0.5,0.5,0.9,1,1.3c0.6,0.4,1.1,0.6,1.5,0.5
		c0.5,0,0.8-0.2,1-0.6c0.1-0.2,0.2-0.4,0.2-0.7c0-0.2-0.1-0.5-0.4-0.8c-0.2-0.2-0.5-0.7-1.2-1.4c-0.8-0.9-1.3-1.6-1.4-2.2
		c-0.2-0.9-0.1-1.6,0.4-2.3c0.3-0.5,0.7-0.8,1.2-1c0.5-0.2,1.1-0.3,1.7-0.1c0.6,0.1,1.3,0.4,1.9,0.9c1.1,0.8,1.8,1.6,2,2.4
		c0.2,0.9,0.1,1.7-0.4,2.5l-1.8-1.1c0.2-0.5,0.3-0.9,0.2-1.3c-0.1-0.4-0.4-0.7-0.9-1.1c-0.5-0.4-1-0.5-1.4-0.5
		c-0.3,0-0.5,0.1-0.7,0.4c-0.1,0.2-0.2,0.5-0.1,0.7c0.1,0.3,0.5,0.9,1.2,1.7c0.7,0.8,1.2,1.4,1.5,1.9c0.3,0.5,0.4,1,0.4,1.6
		c0,0.5-0.2,1.1-0.6,1.6c-0.3,0.5-0.8,0.9-1.4,1.1c-0.6,0.3-1.2,0.3-1.9,0.2c-0.7-0.1-1.4-0.5-2.1-1c-1.1-0.8-1.8-1.6-2-2.5
		C331.2,267.5,331.3,266.5,331.9,265.4L331.9,265.4z M323.1,259.7l1.9,0.9c-0.3,0.7-0.3,1.2-0.2,1.7c0.2,0.5,0.5,0.9,1.1,1.2
		c0.6,0.4,1.1,0.5,1.6,0.5c0.5-0.1,0.8-0.3,1-0.6c0.1-0.2,0.2-0.4,0.1-0.7c0-0.2-0.2-0.5-0.4-0.8c-0.2-0.2-0.6-0.6-1.2-1.3
		c-0.8-0.9-1.3-1.6-1.5-2.2c-0.2-0.8-0.1-1.6,0.3-2.3c0.3-0.5,0.7-0.8,1.2-1.1c0.5-0.2,1.1-0.3,1.7-0.2c0.6,0.1,1.3,0.4,2,0.8
		c1.1,0.7,1.8,1.5,2.1,2.3c0.3,0.9,0.2,1.7-0.3,2.6l-1.9-1.1c0.2-0.5,0.3-1,0.1-1.3c-0.1-0.4-0.5-0.7-1-1c-0.5-0.3-1-0.5-1.5-0.4
		c-0.3,0-0.5,0.1-0.6,0.4c-0.1,0.2-0.2,0.5-0.1,0.7c0.1,0.3,0.5,0.9,1.3,1.7c0.8,0.8,1.3,1.4,1.6,1.9c0.3,0.5,0.4,1,0.4,1.5
		c0,0.5-0.2,1.1-0.5,1.7c-0.3,0.5-0.8,0.9-1.3,1.2c-0.6,0.3-1.2,0.4-1.9,0.3c-0.7-0.1-1.4-0.4-2.2-0.9c-1.1-0.7-1.9-1.5-2.1-2.4
		C322.5,261.8,322.6,260.8,323.1,259.7L323.1,259.7z M312.3,256.8l5.5-9.1l6.7,4.1l-0.9,1.5l-4.9-3l-1.2,2l4.6,2.8l-0.9,1.5
		l-4.6-2.8l-1.5,2.5l5.1,3.1l-0.9,1.5L312.3,256.8L312.3,256.8z M296.5,243.8l0.8-1.6l4.1,2.1l-1.9,3.8c-0.6,0.2-1.4,0.2-2.3,0.1
		c-0.9-0.1-1.8-0.4-2.5-0.8c-1-0.5-1.7-1.2-2.3-2c-0.5-0.8-0.8-1.7-0.7-2.6c0-1,0.3-1.9,0.7-2.8c0.5-1,1.2-1.8,2-2.3
		c0.8-0.6,1.7-0.8,2.7-0.8c0.8,0,1.6,0.2,2.5,0.7c1.2,0.6,2,1.3,2.4,2.2c0.4,0.8,0.5,1.7,0.2,2.7l-2.1-0.6c0.1-0.5,0-1-0.2-1.5
		c-0.2-0.5-0.6-0.8-1.2-1.1c-0.8-0.4-1.6-0.5-2.4-0.2c-0.8,0.3-1.4,0.9-1.9,2c-0.6,1.1-0.8,2.1-0.6,2.9c0.2,0.8,0.7,1.4,1.5,1.9
		c0.4,0.2,0.8,0.3,1.3,0.4c0.5,0.1,0.9,0,1.3,0l0.6-1.2L296.5,243.8L296.5,243.8z M227.7,226.8l1.6-10.6l3.2,0.5l0.9,7.5l2.9-6.9
		l3.2,0.5l-1.6,10.6l-2-0.3l1.2-8.3l-3.3,8l-2-0.3l-0.9-8.6l-1.2,8.3L227.7,226.8L227.7,226.8z M217,225.5l1-10.6l7.9,0.7l-0.2,1.8
		l-5.7-0.5l-0.2,2.4l5.3,0.5l-0.2,1.8l-5.3-0.5l-0.3,2.9l5.9,0.6l-0.2,1.8L217,225.5L217,225.5z"/>
	<g>
		<path class="st5" d="M181.4,218.9c0-1.1,0.2-2,0.6-2.7c0.3-0.5,0.6-1,1-1.4c0.4-0.4,0.9-0.7,1.4-0.9c0.7-0.3,1.4-0.4,2.3-0.4
			c1.6,0,2.8,0.6,3.7,1.6c0.9,1,1.4,2.4,1.3,4.1c0,1.7-0.6,3.1-1.5,4c-1,0.9-2.2,1.4-3.8,1.4c-1.6,0-2.8-0.6-3.7-1.6
			C181.8,221.9,181.3,220.6,181.4,218.9L181.4,218.9z"/>
		<path class="st3" d="M183.6,218.8c0,1.2,0.2,2.1,0.8,2.8c0.5,0.6,1.2,1,2.1,1c0.9,0,1.6-0.3,2.1-0.9c0.6-0.6,0.9-1.5,0.9-2.8
			c0-1.2-0.2-2.1-0.7-2.8c-0.5-0.6-1.2-0.9-2.1-1c-0.9,0-1.6,0.3-2.2,0.9C183.9,216.7,183.6,217.6,183.6,218.8L183.6,218.8z"/>
	</g>
	<g>
		<path class="st5" d="M194,224.4l0.1-10.7l4.5,0.1c1.1,0,2,0.1,2.5,0.3c0.5,0.2,0.9,0.5,1.2,1s0.5,1.1,0.4,1.7c0,0.8-0.3,1.5-0.7,2
			c-0.5,0.5-1.2,0.8-2.1,1c0.5,0.3,0.8,0.6,1.1,0.9c0.3,0.3,0.7,0.9,1.2,1.8l1.3,2.1l-2.6,0l-1.5-2.3c-0.5-0.8-0.9-1.4-1.1-1.6
			c-0.2-0.2-0.4-0.4-0.6-0.5c-0.2-0.1-0.6-0.1-1.1-0.1l-0.4,0l-0.1,4.5L194,224.4L194,224.4z"/>
		<path class="st4" d="M196.2,218.2l1.6,0c1,0,1.7,0,1.9-0.1c0.3-0.1,0.5-0.2,0.6-0.4s0.2-0.5,0.2-0.8c0-0.4-0.1-0.6-0.3-0.9
			c-0.2-0.2-0.5-0.4-0.8-0.4c-0.2,0-0.7,0-1.6-0.1l-1.7,0L196.2,218.2L196.2,218.2z"/>
	</g>
	<g>
		<path class="st5" d="M206.2,214.2l3.9,0.2c0.9,0,1.6,0.1,2,0.3c0.6,0.2,1.1,0.6,1.6,1.1c0.4,0.5,0.7,1.1,0.9,1.8
			c0.2,0.7,0.3,1.5,0.2,2.5c0,0.9-0.2,1.6-0.4,2.3c-0.3,0.8-0.7,1.4-1.2,1.8c-0.4,0.3-0.9,0.6-1.6,0.8c-0.5,0.1-1.1,0.2-1.9,0.1
			l-4-0.2L206.2,214.2L206.2,214.2z"/>
		<path class="st4" d="M208.2,216.1l-0.4,7.1l1.6,0.1c0.6,0,1,0,1.3,0c0.4-0.1,0.6-0.2,0.9-0.4c0.2-0.2,0.4-0.5,0.6-1
			c0.2-0.5,0.3-1.1,0.3-1.9s0-1.5-0.1-1.9c-0.1-0.4-0.3-0.8-0.6-1.1c-0.2-0.3-0.6-0.4-1-0.6c-0.3-0.1-0.9-0.1-1.8-0.2L208.2,216.1
			L208.2,216.1z"/>
	</g>
	<g>
		<path class="st5" d="M258.5,233.3l2.5-10.4l3.4,0.8c1.3,0.3,2.1,0.6,2.4,0.8c0.6,0.3,1,0.8,1.2,1.4c0.3,0.6,0.3,1.3,0.1,2.2
			c-0.2,0.6-0.4,1.1-0.7,1.5c-0.3,0.4-0.7,0.6-1.1,0.8c-0.4,0.2-0.8,0.2-1.2,0.2c-0.5,0-1.3-0.1-2.2-0.4l-1.4-0.3l-0.9,3.9
			L258.5,233.3L258.5,233.3z"/>
		<path class="st4" d="M262.6,225.2l-0.7,2.9l1.1,0.3c0.8,0.2,1.4,0.3,1.7,0.2c0.3,0,0.6-0.2,0.8-0.4c0.2-0.2,0.4-0.4,0.4-0.8
			c0.1-0.4,0.1-0.7-0.1-1c-0.2-0.3-0.4-0.5-0.7-0.7c-0.2-0.1-0.7-0.3-1.5-0.4L262.6,225.2L262.6,225.2z"/>
	</g>
	<g>
		<path class="st5" d="M268.4,236.3l3.5-10.1l4.3,1.5c1.1,0.4,1.8,0.7,2.2,1.1c0.4,0.4,0.7,0.8,0.8,1.4s0.1,1.1-0.1,1.7
			c-0.3,0.8-0.7,1.3-1.3,1.6c-0.6,0.3-1.4,0.4-2.3,0.2c0.3,0.4,0.6,0.8,0.8,1.2c0.2,0.4,0.4,1.1,0.6,2l0.5,2.4l-2.4-0.9l-0.7-2.7
			c-0.2-1-0.4-1.6-0.5-1.9c-0.1-0.3-0.3-0.5-0.5-0.6c-0.2-0.2-0.5-0.3-1-0.5l-0.4-0.1l-1.5,4.2L268.4,236.3L268.4,236.3z"/>
		<path class="st4" d="M272.4,231.2l1.5,0.5c1,0.3,1.6,0.5,1.9,0.5c0.3,0,0.5-0.1,0.7-0.2c0.2-0.2,0.4-0.4,0.5-0.7
			c0.1-0.3,0.1-0.6,0-0.9c-0.1-0.3-0.3-0.5-0.6-0.7c-0.2-0.1-0.6-0.3-1.5-0.6l-1.6-0.6L272.4,231.2L272.4,231.2z"/>
	</g>
	<g>
		<path class="st5" d="M280.9,235.9c0.3-1,0.8-1.9,1.3-2.5c0.4-0.4,0.9-0.8,1.4-1.1c0.5-0.3,1.1-0.5,1.6-0.5c0.7-0.1,1.5,0,2.3,0.3
			c1.5,0.5,2.5,1.3,3.2,2.5c0.6,1.2,0.7,2.7,0.1,4.3c-0.5,1.6-1.4,2.8-2.5,3.5c-1.2,0.6-2.5,0.7-4,0.3c-1.5-0.5-2.6-1.3-3.2-2.5
			C280.4,238.9,280.4,237.5,280.9,235.9L280.9,235.9z"/>
		<path class="st4" d="M283,236.5c-0.4,1.2-0.4,2.1,0,2.9c0.3,0.8,0.9,1.3,1.8,1.5c0.8,0.3,1.6,0.2,2.3-0.3c0.7-0.4,1.3-1.2,1.6-2.4
			c0.4-1.2,0.4-2.1,0-2.9c-0.3-0.7-0.9-1.2-1.8-1.5c-0.8-0.3-1.6-0.2-2.3,0.2C283.9,234.5,283.4,235.3,283,236.5L283,236.5z"/>
	</g>
	<g>
		<path class="st5" d="M301.7,250.8l4.9-9.5l4,2.1c1,0.5,1.7,1,2.1,1.4c0.4,0.4,0.6,0.9,0.6,1.5s-0.1,1.1-0.4,1.7
			c-0.4,0.7-0.9,1.2-1.5,1.4c-0.7,0.2-1.4,0.2-2.3-0.1c0.3,0.5,0.5,0.9,0.6,1.3c0.1,0.4,0.2,1.1,0.3,2.1l0.2,2.4l-2.3-1.2l-0.3-2.8
			c-0.1-1-0.2-1.6-0.3-1.9c-0.1-0.3-0.2-0.5-0.4-0.7c-0.2-0.2-0.5-0.4-0.9-0.6l-0.4-0.2l-2,4L301.7,250.8L301.7,250.8z"/>
		<path class="st4" d="M306.4,246.3l1.4,0.7c0.9,0.5,1.5,0.7,1.8,0.8c0.3,0,0.5,0,0.7-0.1c0.2-0.1,0.4-0.3,0.6-0.6
			c0.2-0.3,0.2-0.6,0.1-0.9c-0.1-0.3-0.2-0.5-0.5-0.8c-0.1-0.1-0.6-0.4-1.4-0.8l-1.5-0.8L306.4,246.3L306.4,246.3z"/>
	</g>
	<g>
		<path class="st5" d="M341.2,270.3c0.6-0.9,1.3-1.6,1.9-2c0.5-0.3,1-0.5,1.6-0.7c0.6-0.1,1.1-0.1,1.7,0c0.7,0.1,1.4,0.5,2.1,0.9
			c1.3,0.9,2.1,2,2.3,3.3c0.2,1.3-0.1,2.7-1.1,4.2c-1,1.4-2.1,2.3-3.4,2.6c-1.3,0.3-2.6,0-3.9-0.9c-1.3-0.9-2.1-2-2.3-3.3
			C339.9,273,340.2,271.7,341.2,270.3L341.2,270.3z"/>
		<path class="st4" d="M343.1,271.4c-0.7,1-1,1.9-0.8,2.8c0.1,0.8,0.5,1.5,1.2,2c0.7,0.5,1.5,0.6,2.3,0.4c0.8-0.2,1.6-0.8,2.2-1.8
			c0.7-1,1-1.9,0.9-2.7c-0.1-0.8-0.5-1.4-1.3-1.9s-1.5-0.6-2.3-0.4C344.5,269.8,343.8,270.4,343.1,271.4L343.1,271.4z"/>
	</g>
	<path class="st5" d="M246.4,228.9l1.7-7.5l5.5,1.3l-0.3,1.3l-4-0.9l-0.4,1.7l3.8,0.9l-0.3,1.3l-3.8-0.9l-0.5,2l4.2,1l-0.3,1.3
		L246.4,228.9L246.4,228.9z"/>
</g>
</svg>
