<?xml version="1.0" encoding="utf-8"?>
<!-- Generator: Adobe Illustrator 19.2.1, SVG Export Plug-In . SVG Version: 6.00 Build 0)  -->
<svg version="1.1"
	 id="svg153" xmlns:cc="http://creativecommons.org/ns#" xmlns:dc="http://purl.org/dc/elements/1.1/" xmlns:rdf="http://www.w3.org/1999/02/22-rdf-syntax-ns#"
	 xmlns="http://www.w3.org/2000/svg" xmlns:xlink="http://www.w3.org/1999/xlink" x="0px" y="0px" viewBox="0 0 512 512"
	 style="enable-background:new 0 0 512 512;" xml:space="preserve">
<style type="text/css">
	.st0{clip-path:url(#SVGID_2_);}
	.st1{fill:#646464;}
	.st2{fill:#FFFFFF;}
	.st3{fill:#2D2D2D;}
</style>
<desc  id="desc3066">The United States of America flag, produced by Daniel McRae</desc>
<g>
	<defs>
		<rect id="SVGID_1_" y="0" width="512" height="512"/>
	</defs>
	<clipPath id="SVGID_2_">
		<use xlink:href="#SVGID_1_"  style="overflow:visible;"/>
	</clipPath>
	<g id="flag" transform="matrix(3.9385 0 0 3.9385 0 .000005)" class="st0">
		<g id="g390">
			<g id="g169">
				<rect id="rect156" y="0" class="st1" width="247" height="10"/>
				<rect id="rect158" y="20" class="st1" width="247" height="10"/>
				<rect id="rect160" y="40" class="st1" width="247" height="10"/>
				<rect id="rect162" y="60" class="st1" width="247" height="10"/>
				<rect id="rect164" y="80" class="st1" width="247" height="10"/>
				<rect id="rect166" y="100" class="st1" width="247" height="10"/>
				<rect id="rect168" y="120" class="st1" width="247" height="10"/>
			</g>
			<g id="g177">
				<rect id="rect157" y="10" class="st2" width="247" height="10"/>
				<rect id="rect159" y="30" class="st2" width="247" height="10"/>
				<rect id="rect161" y="50" class="st2" width="247" height="10"/>
				<rect id="rect163" y="70" class="st2" width="247" height="10"/>
				<rect id="rect165" y="90" class="st2" width="247" height="10"/>
				<rect id="rect167" y="110" class="st2" width="247" height="10"/>
			</g>
		</g>
		<rect id="rect200" y="0" class="st3" width="98.8" height="70"/>
		<g id="g274">
			<g id="g218">
				<g id="g194">
					<polygon id="polygon207" class="st2" points="8.2,3 9.1,5.8 12,5.8 9.7,7.5 10.6,10.2 8.2,8.5 5.9,10.2 6.8,7.5 4.4,5.8 
						7.3,5.8 					"/>
					<polygon id="polygon188" class="st2" points="24.7,3 25.6,5.8 28.5,5.8 26.2,7.5 27.1,10.2 24.7,8.5 22.3,10.2 23.2,7.5 
						20.9,5.8 23.8,5.8 					"/>
					<polygon id="polygon189" class="st2" points="41.2,3 42.1,5.8 45,5.8 42.6,7.5 43.5,10.2 41.2,8.5 38.8,10.2 39.7,7.5 
						37.4,5.8 40.3,5.8 					"/>
					<polygon id="polygon190" class="st2" points="57.6,3 58.5,5.8 61.4,5.8 59.1,7.5 60,10.2 57.6,8.5 55.3,10.2 56.2,7.5 
						53.8,5.8 56.7,5.8 					"/>
					<polygon id="polygon191" class="st2" points="74.1,3 75,5.8 77.9,5.8 75.6,7.5 76.5,10.2 74.1,8.5 71.7,10.2 72.6,7.5 
						70.3,5.8 73.2,5.8 					"/>
					<polygon id="polygon192" class="st2" points="90.6,3 91.5,5.8 94.4,5.8 92,7.5 92.9,10.2 90.6,8.5 88.2,10.2 89.1,7.5 
						86.8,5.8 89.7,5.8 					"/>
				</g>
				<g id="g205">
					<polygon id="polygon193" class="st2" points="16.5,10 17.4,12.8 20.3,12.8 17.9,14.5 18.8,17.2 16.5,15.5 14.1,17.2 15,14.5 
						12.7,12.8 15.6,12.8 					"/>
					<polygon id="polygon201" class="st2" points="32.9,10 33.8,12.8 36.7,12.8 34.4,14.5 35.3,17.2 32.9,15.5 30.6,17.2 31.5,14.5 
						29.1,12.8 32,12.8 					"/>
					<polygon id="polygon202" class="st2" points="49.4,10 50.3,12.8 53.2,12.8 50.9,14.5 51.8,17.2 49.4,15.5 47,17.2 47.9,14.5 
						45.6,12.8 48.5,12.8 					"/>
					<polygon id="polygon203" class="st2" points="65.9,10 66.8,12.8 69.7,12.8 67.3,14.5 68.2,17.2 65.9,15.5 63.5,17.2 64.4,14.5 
						62.1,12.8 65,12.8 					"/>
					<polygon id="polygon204" class="st2" points="82.3,10 83.2,12.8 86.1,12.8 83.8,14.5 84.7,17.2 82.3,15.5 80,17.2 80.9,14.5 
						78.5,12.8 81.4,12.8 					"/>
				</g>
			</g>
			<g id="g232" transform="translate(0,14)">
				<g id="g233">
					<polygon id="polygon234" class="st2" points="8.2,3 9.1,5.8 12,5.8 9.7,7.5 10.6,10.2 8.2,8.5 5.9,10.2 6.8,7.5 4.4,5.8 
						7.3,5.8 					"/>
					<polygon id="polygon235" class="st2" points="24.7,3 25.6,5.8 28.5,5.8 26.2,7.5 27.1,10.2 24.7,8.5 22.3,10.2 23.2,7.5 
						20.9,5.8 23.8,5.8 					"/>
					<polygon id="polygon236" class="st2" points="41.2,3 42.1,5.8 45,5.8 42.6,7.5 43.5,10.2 41.2,8.5 38.8,10.2 39.7,7.5 
						37.4,5.8 40.3,5.8 					"/>
					<polygon id="polygon237" class="st2" points="57.6,3 58.5,5.8 61.4,5.8 59.1,7.5 60,10.2 57.6,8.5 55.3,10.2 56.2,7.5 
						53.8,5.8 56.7,5.8 					"/>
					<polygon id="polygon238" class="st2" points="74.1,3 75,5.8 77.9,5.8 75.6,7.5 76.5,10.2 74.1,8.5 71.7,10.2 72.6,7.5 
						70.3,5.8 73.2,5.8 					"/>
					<polygon id="polygon239" class="st2" points="90.6,3 91.5,5.8 94.4,5.8 92,7.5 92.9,10.2 90.6,8.5 88.2,10.2 89.1,7.5 
						86.8,5.8 89.7,5.8 					"/>
				</g>
				<g id="g240">
					<polygon id="polygon241" class="st2" points="16.5,10 17.4,12.8 20.3,12.8 17.9,14.5 18.8,17.2 16.5,15.5 14.1,17.2 15,14.5 
						12.7,12.8 15.6,12.8 					"/>
					<polygon id="polygon242" class="st2" points="32.9,10 33.8,12.8 36.7,12.8 34.4,14.5 35.3,17.2 32.9,15.5 30.6,17.2 31.5,14.5 
						29.1,12.8 32,12.8 					"/>
					<polygon id="polygon243" class="st2" points="49.4,10 50.3,12.8 53.2,12.8 50.9,14.5 51.8,17.2 49.4,15.5 47,17.2 47.9,14.5 
						45.6,12.8 48.5,12.8 					"/>
					<polygon id="polygon244" class="st2" points="65.9,10 66.8,12.8 69.7,12.8 67.3,14.5 68.2,17.2 65.9,15.5 63.5,17.2 64.4,14.5 
						62.1,12.8 65,12.8 					"/>
					<polygon id="polygon245" class="st2" points="82.3,10 83.2,12.8 86.1,12.8 83.8,14.5 84.7,17.2 82.3,15.5 80,17.2 80.9,14.5 
						78.5,12.8 81.4,12.8 					"/>
				</g>
			</g>
			<g id="g246" transform="translate(0,28)">
				<g id="g247">
					<polygon id="polygon248" class="st2" points="8.2,3 9.1,5.8 12,5.8 9.7,7.5 10.6,10.2 8.2,8.5 5.9,10.2 6.8,7.5 4.4,5.8 
						7.3,5.8 					"/>
					<polygon id="polygon249" class="st2" points="24.7,3 25.6,5.8 28.5,5.8 26.2,7.5 27.1,10.2 24.7,8.5 22.3,10.2 23.2,7.5 
						20.9,5.8 23.8,5.8 					"/>
					<polygon id="polygon250" class="st2" points="41.2,3 42.1,5.8 45,5.8 42.6,7.5 43.5,10.2 41.2,8.5 38.8,10.2 39.7,7.5 
						37.4,5.8 40.3,5.8 					"/>
					<polygon id="polygon251" class="st2" points="57.6,3 58.5,5.8 61.4,5.8 59.1,7.5 60,10.2 57.6,8.5 55.3,10.2 56.2,7.5 
						53.8,5.8 56.7,5.8 					"/>
					<polygon id="polygon252" class="st2" points="74.1,3 75,5.8 77.9,5.8 75.6,7.5 76.5,10.2 74.1,8.5 71.7,10.2 72.6,7.5 
						70.3,5.8 73.2,5.8 					"/>
					<polygon id="polygon253" class="st2" points="90.6,3 91.5,5.8 94.4,5.8 92,7.5 92.9,10.2 90.6,8.5 88.2,10.2 89.1,7.5 
						86.8,5.8 89.7,5.8 					"/>
				</g>
				<g id="g254">
					<polygon id="polygon255" class="st2" points="16.5,10 17.4,12.8 20.3,12.8 17.9,14.5 18.8,17.2 16.5,15.5 14.1,17.2 15,14.5 
						12.7,12.8 15.6,12.8 					"/>
					<polygon id="polygon256" class="st2" points="32.9,10 33.8,12.8 36.7,12.8 34.4,14.5 35.3,17.2 32.9,15.5 30.6,17.2 31.5,14.5 
						29.1,12.8 32,12.8 					"/>
					<polygon id="polygon257" class="st2" points="49.4,10 50.3,12.8 53.2,12.8 50.9,14.5 51.8,17.2 49.4,15.5 47,17.2 47.9,14.5 
						45.6,12.8 48.5,12.8 					"/>
					<polygon id="polygon258" class="st2" points="65.9,10 66.8,12.8 69.7,12.8 67.3,14.5 68.2,17.2 65.9,15.5 63.5,17.2 64.4,14.5 
						62.1,12.8 65,12.8 					"/>
					<polygon id="polygon259" class="st2" points="82.3,10 83.2,12.8 86.1,12.8 83.8,14.5 84.7,17.2 82.3,15.5 80,17.2 80.9,14.5 
						78.5,12.8 81.4,12.8 					"/>
				</g>
			</g>
			<g id="g260" transform="translate(0,42)">
				<g id="g261">
					<polygon id="polygon262" class="st2" points="8.2,3 9.1,5.8 12,5.8 9.7,7.5 10.6,10.2 8.2,8.5 5.9,10.2 6.8,7.5 4.4,5.8 
						7.3,5.8 					"/>
					<polygon id="polygon263" class="st2" points="24.7,3 25.6,5.8 28.5,5.8 26.2,7.5 27.1,10.2 24.7,8.5 22.3,10.2 23.2,7.5 
						20.9,5.8 23.8,5.8 					"/>
					<polygon id="polygon264" class="st2" points="41.2,3 42.1,5.8 45,5.8 42.6,7.5 43.5,10.2 41.2,8.5 38.8,10.2 39.7,7.5 
						37.4,5.8 40.3,5.8 					"/>
					<polygon id="polygon265" class="st2" points="57.6,3 58.5,5.8 61.4,5.8 59.1,7.5 60,10.2 57.6,8.5 55.3,10.2 56.2,7.5 
						53.8,5.8 56.7,5.8 					"/>
					<polygon id="polygon266" class="st2" points="74.1,3 75,5.8 77.9,5.8 75.6,7.5 76.5,10.2 74.1,8.5 71.7,10.2 72.6,7.5 
						70.3,5.8 73.2,5.8 					"/>
					<polygon id="polygon267" class="st2" points="90.6,3 91.5,5.8 94.4,5.8 92,7.5 92.9,10.2 90.6,8.5 88.2,10.2 89.1,7.5 
						86.8,5.8 89.7,5.8 					"/>
				</g>
				<g id="g268">
					<polygon id="polygon269" class="st2" points="16.5,10 17.4,12.8 20.3,12.8 17.9,14.5 18.8,17.2 16.5,15.5 14.1,17.2 15,14.5 
						12.7,12.8 15.6,12.8 					"/>
					<polygon id="polygon270" class="st2" points="32.9,10 33.8,12.8 36.7,12.8 34.4,14.5 35.3,17.2 32.9,15.5 30.6,17.2 31.5,14.5 
						29.1,12.8 32,12.8 					"/>
					<polygon id="polygon271" class="st2" points="49.4,10 50.3,12.8 53.2,12.8 50.9,14.5 51.8,17.2 49.4,15.5 47,17.2 47.9,14.5 
						45.6,12.8 48.5,12.8 					"/>
					<polygon id="polygon272" class="st2" points="65.9,10 66.8,12.8 69.7,12.8 67.3,14.5 68.2,17.2 65.9,15.5 63.5,17.2 64.4,14.5 
						62.1,12.8 65,12.8 					"/>
					<polygon id="polygon273" class="st2" points="82.3,10 83.2,12.8 86.1,12.8 83.8,14.5 84.7,17.2 82.3,15.5 80,17.2 80.9,14.5 
						78.5,12.8 81.4,12.8 					"/>
				</g>
			</g>
			<g id="g211" transform="translate(0,56)">
				<polygon id="polygon212" class="st2" points="8.2,3 9.1,5.8 12,5.8 9.7,7.5 10.6,10.2 8.2,8.5 5.9,10.2 6.8,7.5 4.4,5.8 
					7.3,5.8 				"/>
				<polygon id="polygon213" class="st2" points="24.7,3 25.6,5.8 28.5,5.8 26.2,7.5 27.1,10.2 24.7,8.5 22.3,10.2 23.2,7.5 
					20.9,5.8 23.8,5.8 				"/>
				<polygon id="polygon214" class="st2" points="41.2,3 42.1,5.8 45,5.8 42.6,7.5 43.5,10.2 41.2,8.5 38.8,10.2 39.7,7.5 37.4,5.8 
					40.3,5.8 				"/>
				<polygon id="polygon215" class="st2" points="57.6,3 58.5,5.8 61.4,5.8 59.1,7.5 60,10.2 57.6,8.5 55.3,10.2 56.2,7.5 53.8,5.8 
					56.7,5.8 				"/>
				<polygon id="polygon216" class="st2" points="74.1,3 75,5.8 77.9,5.8 75.6,7.5 76.5,10.2 74.1,8.5 71.7,10.2 72.6,7.5 70.3,5.8 
					73.2,5.8 				"/>
				<polygon id="polygon217" class="st2" points="90.6,3 91.5,5.8 94.4,5.8 92,7.5 92.9,10.2 90.6,8.5 88.2,10.2 89.1,7.5 86.8,5.8 
					89.7,5.8 				"/>
			</g>
		</g>
	</g>
</g>
</svg>
