<?xml version="1.0" encoding="utf-8"?>
<!-- Generator: Adobe Illustrator 19.2.1, SVG Export Plug-In . SVG Version: 6.00 Build 0)  -->
<svg version="1.1" id="Layer_1" xmlns="http://www.w3.org/2000/svg" xmlns:xlink="http://www.w3.org/1999/xlink" x="0px" y="0px"
	 viewBox="0 0 640 480" style="enable-background:new 0 0 640 480;" xml:space="preserve">
<style type="text/css">
	.st0{fill:#6F6F6F;}
	.st1{fill:#D2D2D2;}
	.st2{fill:#4A4A4A;}
	.st3{fill:#FDFDFD;}
	.st4{fill:#FFFFFF;}
	.st5{fill:#727272;}
</style>
<g>
	<path class="st0" d="M0,0h640v480H0V0z"/>
	<path class="st1" d="M321.4,435.9l301.5-195.7L319.6,44.1L17.1,240.7L321.4,435.9L321.4,435.9z"/>
	<path class="st2" d="M452.8,240c0,70.3-57.1,127.3-127.5,127.3c-70.4,0-127.5-57-127.5-127.3s57.1-127.3,127.5-127.3
		C395.7,112.7,452.8,169.7,452.8,240L452.8,240z"/>
	<path class="st3" d="M283.3,316.3l-3.9-2.3l-4.1,2l0.9-4.5l-3.2-3.3l4.5-0.5l2.1-4.1l1.9,4.2l4.5,0.8l-3.3,3.1 M368.8,337.9
		l-3.9-2.3l-4.1,2l0.9-4.5l-3.2-3.3l4.5-0.5l2.1-4.1l1.9,4.2l4.5,0.8l-3.3,3.1 M331.9,303.3l-3.4-2l-3.5,1.7l0.8-3.9l-2.7-2.9
		l3.9-0.5l1.8-3.5l1.6,3.6l3.9,0.7l-2.9,2.7 M418.3,290.9l-3.3-1.9l-3.5,1.7l0.8-3.9l-2.7-2.8l3.8-0.5l1.8-3.5l1.6,3.6l3.8,0.7
		l-2.8,2.7 M330.4,265l-3.9-2.3l-4.1,2l0.9-4.5l-3.2-3.3l4.5-0.5l2.1-4.1l1.9,4.2l4.5,0.8l-3.3,3.1 M225.1,225.5l-3.9-2.3l-4.1,2
		l0.9-4.5l-3.2-3.3l4.5-0.5l2.1-4.1l1.9,4.2l4.5,0.8l-3.3,3.1 M237.8,278.1l-3.9-2.3l-4.1,2l0.9-4.5l-3.2-3.3l4.5-0.5l2.1-4.1
		l1.9,4.2l4.5,0.8l-3.3,3.1 M369.1,206.2l-3.5-2L362,206l0.8-4L360,199l4-0.5l1.9-3.6l1.7,3.7l3.9,0.7l-3,2.8 M361.9,240.4l-2.7-1.6
		l-2.9,1.4l0.6-3.2l-2.2-2.3l3.1-0.4l1.5-2.8l1.3,2.9l3.1,0.6l-2.3,2.2 M219.3,287.6l-2.6-1.5l-2.7,1.4l0.6-3l-2.1-2.2l3-0.4
		l1.4-2.7l1.3,2.8l3,0.5l-2.2,2.1 M419,299.7l-2.1-1.1l-2.2,1l0.5-2.3l-1.7-1.7l2.5-0.3l1.2-2l1,2.1l2.4,0.4l-1.8,1.6"/>
	<path class="st3" d="M219.3,287.6l-2.6-1.5l-2.7,1.4l0.6-3l-2.1-2.2l3-0.4l1.4-2.7l1.3,2.8l3,0.5l-2.2,2.1"/>
	<path class="st3" d="M219.3,287.6l-2.6-1.5l-2.7,1.4l0.6-3l-2.1-2.2l3-0.4l1.4-2.7l1.3,2.8l3,0.5l-2.2,2.1 M261.1,287.6l-2.6-1.5
		l-2.7,1.4l0.6-3l-2.1-2.2l3-0.4l1.4-2.7l1.3,2.8l3,0.5l-2.2,2.1 M255.9,301.5l-2.6-1.5l-2.7,1.4l0.6-3l-2.1-2.2l3-0.4l1.4-2.7
		l1.3,2.8l3,0.5l-2.2,2.1 M342.9,276.2l-2.6-1.5l-2.7,1.4l0.6-3l-2.1-2.2l3-0.4l1.4-2.7l1.3,2.8l3,0.5l-2.2,2.1 M317.4,276.2
		l-2.6-1.5L312,276l0.6-3l-2.1-2.2l3-0.4l1.4-2.7l1.3,2.8l3,0.5l-2.2,2.1 M248.2,267.3l-1.6-1l-1.7,0.8l0.4-1.9l-1.3-1.4l1.9-0.2
		l0.9-1.7l0.8,1.8l1.9,0.3l-1.4,1.3 M415.7,310.7l-2.6-1.5l-2.7,1.4l0.6-3l-2.1-2.2l3-0.4l1.4-2.7l1.3,2.8l3,0.5l-2.2,2.1
		 M394.5,313.5l-2.2-1.3l-2.3,1.1l0.5-2.5l-1.7-1.8l2.5-0.3l1.2-2.3l1,2.3l2.5,0.5l-1.9,1.7 M404.5,313.3l-2-1.2l-2.1,1l0.5-2.3
		l-1.6-1.7l2.3-0.3l1.1-2.1l1,2.2l2.3,0.4l-1.7,1.6 M433.3,288.1l-2-1.1l-2,1l0.5-2.3l-1.6-1.7l2.2-0.3l1.1-2l0.9,2.1l2.2,0.4
		l-1.7,1.6 M394.2,327.7l-2.6-1.4l-2.7,1.2l0.6-2.8l-2-2l2.9-0.3l1.4-2.5l1.2,2.6l2.9,0.5l-2.2,1.9 M394.4,339.1l-2.3-1.4l-2.4,1.2
		l0.5-2.8l-1.9-2l2.7-0.3l1.3-2.5l1.1,2.6l2.6,0.5l-2,1.9 M375.1,313.3l-2-1.1l-2,1l0.5-2.3l-1.6-1.7l2.2-0.3l1.1-2l0.9,2.1l2.2,0.4
		l-1.7,1.6 M357,313.3l-2-1.1l-2,1l0.5-2.3l-1.6-1.7l2.2-0.3l1.1-2l0.9,2.1l2.2,0.4l-1.7,1.6 M326.3,286.4l-2-1.1l-2,1l0.5-2.3
		l-1.6-1.7l2.2-0.3l1.1-2l0.9,2.1l2.2,0.4l-1.7,1.6 M329.7,341.2l-1.7-1l-1.7,0.9l0.4-1.9l-1.3-1.4l1.9-0.2l0.9-1.7l0.8,1.8l1.9,0.3
		l-1.4,1.3 M283.3,252.6l-3.9-2.3l-4.1,2l0.9-4.5l-3.2-3.3l4.5-0.5l2.1-4.1l1.9,4.2l4.5,0.8l-3.3,3.1"/>
	<path class="st4" d="M444.4,285.8c1.9-5.1,4.5-12.8,5.8-19.8c-67.7-59.5-143.3-90-238.7-83.7c-3.4,6.6-6.2,13.4-8.5,20.9
		C316.1,192.4,398.9,242.4,444.4,285.8L444.4,285.8z"/>
	<path class="st5" d="M413.9,252.4l2.4,1.3c-0.4,0.9-0.5,1.6-0.3,2.3c0.2,0.6,0.6,1.2,1.3,1.7c0.8,0.5,1.4,0.7,2,0.7
		c0.6-0.1,1-0.3,1.3-0.7c0.2-0.3,0.3-0.6,0.2-0.9c0-0.3-0.2-0.7-0.5-1.1c-0.2-0.3-0.7-0.9-1.5-1.8c-1-1.2-1.7-2.1-1.9-2.9
		c-0.3-1.1-0.1-2.1,0.5-3.1c0.4-0.6,0.9-1,1.6-1.3c0.7-0.3,1.4-0.4,2.2-0.2c0.8,0.2,1.7,0.5,2.5,1.1c1.5,1,2.3,2,2.6,3.2
		c0.3,1.1,0.1,2.3-0.6,3.3l-2.4-1.5c0.3-0.7,0.4-1.2,0.2-1.7c-0.1-0.5-0.5-0.9-1.2-1.4c-0.7-0.5-1.3-0.7-1.9-0.7
		c-0.4,0-0.7,0.2-0.9,0.5c-0.2,0.3-0.2,0.6-0.1,0.9c0.1,0.4,0.7,1.2,1.6,2.2c1,1,1.6,1.9,2,2.5c0.4,0.7,0.5,1.3,0.5,2.1
		c0,0.7-0.3,1.4-0.8,2.2c-0.5,0.7-1.1,1.2-1.8,1.5c-0.8,0.3-1.6,0.4-2.4,0.2c-0.9-0.2-1.8-0.6-2.8-1.3c-1.5-1-2.4-2.1-2.7-3.3
		C413,255.1,413.2,253.8,413.9,252.4L413.9,252.4z M402.4,244.8l2.5,1.2c-0.3,0.9-0.4,1.6-0.2,2.3c0.2,0.6,0.7,1.2,1.4,1.6
		c0.8,0.5,1.5,0.7,2,0.6c0.6-0.1,1-0.3,1.3-0.8c0.2-0.3,0.2-0.6,0.2-0.9c0-0.3-0.2-0.7-0.5-1.1c-0.2-0.3-0.8-0.8-1.6-1.7
		c-1.1-1.1-1.7-2.1-2-2.9c-0.3-1.1-0.2-2.1,0.4-3.1c0.4-0.6,0.9-1.1,1.6-1.4c0.7-0.3,1.4-0.4,2.2-0.3c0.8,0.1,1.7,0.5,2.6,1
		c1.5,0.9,2.4,2,2.8,3.1c0.4,1.1,0.2,2.2-0.4,3.4l-2.5-1.4c0.3-0.7,0.3-1.3,0.1-1.7c-0.2-0.5-0.6-0.9-1.3-1.4
		c-0.7-0.4-1.3-0.6-1.9-0.6c-0.4,0-0.6,0.2-0.8,0.5c-0.2,0.3-0.2,0.6-0.1,0.9c0.1,0.4,0.7,1.2,1.7,2.2c1,1,1.7,1.8,2.1,2.5
		c0.4,0.6,0.6,1.3,0.6,2c0,0.7-0.2,1.4-0.7,2.2c-0.4,0.7-1,1.2-1.8,1.6c-0.7,0.4-1.6,0.5-2.4,0.3c-0.9-0.1-1.8-0.5-2.8-1.2
		c-1.5-0.9-2.4-2-2.8-3.2C401.6,247.6,401.8,246.3,402.4,244.8L402.4,244.8z M388.2,241l7.3-12l8.8,5.4l-1.2,2l-6.4-3.9l-1.6,2.7
		l6,3.7l-1.2,2l-6-3.7l-2,3.3l6.7,4.1l-1.2,2L388.2,241L388.2,241z M367.5,224l1.1-2.1l5.4,2.8l-2.5,5c-0.8,0.2-1.8,0.3-3,0.2
		c-1.2-0.1-2.3-0.5-3.3-1c-1.3-0.7-2.3-1.5-3-2.6c-0.7-1.1-1-2.2-1-3.5c0-1.3,0.4-2.5,1-3.7c0.7-1.3,1.5-2.3,2.6-3
		c1.1-0.7,2.3-1.1,3.6-1.1c1,0,2.1,0.3,3.3,0.9c1.5,0.8,2.6,1.7,3.1,2.8c0.5,1.1,0.6,2.3,0.3,3.6l-2.7-0.8c0.1-0.7,0.1-1.4-0.3-2
		c-0.3-0.6-0.8-1.1-1.5-1.5c-1.1-0.6-2.1-0.7-3.2-0.3c-1,0.4-1.9,1.2-2.6,2.6c-0.8,1.5-1,2.8-0.7,3.8c0.3,1.1,0.9,1.9,2,2.4
		c0.5,0.3,1.1,0.4,1.7,0.5c0.6,0.1,1.2,0.1,1.8-0.1l0.8-1.6L367.5,224L367.5,224z M277.3,201.6l2-13.9l4.2,0.6l1.1,9.8l3.9-9.1
		l4.2,0.6l-2,13.9l-2.6-0.4l1.6-10.9l-4.3,10.5l-2.7-0.4l-1.1-11.3l-1.6,10.9L277.3,201.6L277.3,201.6z M263.2,200l1.3-14l10.3,1
		l-0.2,2.4l-7.5-0.7l-0.3,3.1l7,0.7l-0.2,2.4l-7-0.7l-0.4,3.8l7.8,0.7l-0.2,2.4L263.2,200L263.2,200z"/>
	<g>
		<path class="st5" d="M216.5,191.3c0-1.4,0.3-2.6,0.7-3.6c0.3-0.7,0.8-1.3,1.3-1.9c0.6-0.6,1.2-1,1.8-1.2c0.9-0.3,1.9-0.5,3-0.5
			c2.1,0.1,3.7,0.7,4.9,2.1c1.2,1.3,1.8,3.1,1.7,5.4c-0.1,2.3-0.7,4-2,5.3c-1.3,1.2-2.9,1.8-5,1.8c-2.1-0.1-3.7-0.7-4.9-2
			C217,195.3,216.4,193.5,216.5,191.3L216.5,191.3z"/>
		<path class="st3" d="M219.4,191.3c0,1.6,0.3,2.8,1,3.6c0.7,0.8,1.6,1.3,2.7,1.3c1.1,0,2.1-0.4,2.8-1.1c0.7-0.8,1.1-2,1.2-3.6
			c0-1.6-0.3-2.8-1-3.6c-0.7-0.8-1.6-1.2-2.8-1.3c-1.2,0-2.1,0.3-2.8,1.1C219.8,188.4,219.5,189.6,219.4,191.3L219.4,191.3z"/>
	</g>
	<g>
		<path class="st5" d="M233.1,198.5l0.2-14l5.9,0.1c1.5,0,2.6,0.2,3.2,0.4c0.7,0.3,1.2,0.7,1.6,1.4s0.6,1.4,0.6,2.2
			c0,1.1-0.3,1.9-1,2.6c-0.6,0.7-1.6,1.1-2.8,1.3c0.6,0.4,1.1,0.8,1.5,1.2c0.4,0.4,0.9,1.2,1.6,2.3l1.7,2.8l-3.4,0l-2-3.1
			c-0.7-1.1-1.2-1.8-1.5-2.1c-0.3-0.3-0.5-0.5-0.8-0.6c-0.3-0.1-0.8-0.2-1.4-0.2l-0.6,0l-0.1,5.9L233.1,198.5L233.1,198.5z"/>
		<path class="st4" d="M236,190.5l2.1,0c1.4,0,2.2,0,2.5-0.1c0.3-0.1,0.6-0.3,0.8-0.6s0.3-0.6,0.3-1c0-0.5-0.1-0.9-0.4-1.1
			c-0.2-0.3-0.6-0.5-1.1-0.6c-0.2,0-0.9-0.1-2.1-0.1l-2.2,0L236,190.5L236,190.5z"/>
	</g>
	<g>
		<path class="st5" d="M249,185.2l5.1,0.3c1.2,0.1,2,0.2,2.6,0.4c0.8,0.3,1.5,0.8,2,1.4c0.6,0.6,1,1.4,1.2,2.3
			c0.3,0.9,0.4,2,0.3,3.3c-0.1,1.2-0.3,2.1-0.6,3c-0.4,1-0.9,1.8-1.6,2.4c-0.5,0.5-1.2,0.8-2,1c-0.6,0.2-1.5,0.2-2.5,0.2l-5.3-0.3
			L249,185.2L249,185.2z"/>
		<path class="st4" d="M251.7,187.7l-0.5,9.3l2.1,0.1c0.8,0,1.4,0,1.7,0c0.5-0.1,0.9-0.3,1.2-0.5c0.3-0.3,0.6-0.7,0.8-1.3
			c0.2-0.6,0.4-1.5,0.4-2.6s0-1.9-0.2-2.5c-0.2-0.6-0.4-1.1-0.7-1.4c-0.3-0.3-0.8-0.6-1.3-0.7c-0.4-0.1-1.2-0.2-2.3-0.3L251.7,187.7
			L251.7,187.7z"/>
	</g>
	<g>
		<path class="st5" d="M317.6,210.2l3.3-13.6l4.4,1.1c1.7,0.4,2.7,0.7,3.2,1c0.7,0.4,1.3,1,1.6,1.8c0.4,0.8,0.4,1.8,0.2,2.8
			c-0.2,0.8-0.5,1.5-1,2c-0.4,0.5-0.9,0.9-1.5,1.1c-0.5,0.2-1.1,0.3-1.6,0.3c-0.7,0-1.6-0.2-2.9-0.5l-1.8-0.4l-1.2,5.1L317.6,210.2
			L317.6,210.2z"/>
		<path class="st4" d="M323.1,199.6l-0.9,3.9l1.5,0.4c1.1,0.3,1.8,0.4,2.2,0.3c0.4-0.1,0.7-0.2,1-0.5c0.3-0.3,0.5-0.6,0.6-1
			c0.1-0.5,0.1-0.9-0.1-1.3c-0.2-0.4-0.5-0.7-1-0.9c-0.3-0.1-1-0.3-2-0.6L323.1,199.6L323.1,199.6z"/>
	</g>
	<g>
		<path class="st5" d="M330.6,214.1l4.6-13.2l5.6,2c1.4,0.5,2.4,1,2.9,1.4c0.6,0.5,0.9,1.1,1.1,1.8s0.1,1.5-0.2,2.3
			c-0.3,1-0.9,1.7-1.7,2.2c-0.8,0.4-1.8,0.5-3,0.3c0.5,0.5,0.8,1.1,1,1.6c0.2,0.5,0.5,1.4,0.8,2.7l0.7,3.1l-3.2-1.1l-0.9-3.6
			c-0.3-1.3-0.6-2.1-0.7-2.4c-0.2-0.4-0.4-0.6-0.6-0.8c-0.2-0.2-0.7-0.4-1.3-0.6l-0.5-0.2l-1.9,5.5L330.6,214.1L330.6,214.1z"/>
		<path class="st4" d="M335.9,207.4l2,0.7c1.3,0.5,2.1,0.7,2.4,0.7c0.4,0,0.7-0.1,0.9-0.3c0.3-0.2,0.5-0.5,0.6-0.9
			c0.2-0.4,0.2-0.8,0-1.2c-0.1-0.4-0.4-0.6-0.8-0.9c-0.2-0.1-0.8-0.4-1.9-0.7l-2.1-0.7L335.9,207.4L335.9,207.4z"/>
	</g>
	<g>
		<path class="st5" d="M347,213.6c0.4-1.4,1-2.4,1.7-3.2c0.5-0.6,1.1-1.1,1.8-1.4c0.7-0.4,1.4-0.6,2.1-0.7c0.9-0.1,2,0,3,0.4
			c2,0.6,3.3,1.7,4.1,3.3c0.8,1.6,0.9,3.5,0.2,5.7c-0.7,2.2-1.8,3.7-3.3,4.5c-1.5,0.9-3.3,1-5.3,0.4c-2-0.6-3.4-1.7-4.2-3.3
			C346.4,217.6,346.3,215.7,347,213.6L347,213.6z"/>
		<path class="st4" d="M349.8,214.4c-0.5,1.5-0.5,2.8,0,3.8c0.5,1,1.2,1.7,2.3,2c1.1,0.3,2.1,0.2,3-0.3c0.9-0.6,1.6-1.6,2.1-3.2
			c0.5-1.5,0.5-2.8,0.1-3.8c-0.4-1-1.2-1.6-2.3-2c-1.1-0.3-2.1-0.2-3,0.3C351,211.8,350.3,212.8,349.8,214.4L349.8,214.4z"/>
	</g>
	<g>
		<path class="st5" d="M374.3,233.1l6.4-12.4l5.3,2.7c1.3,0.7,2.2,1.3,2.7,1.8c0.5,0.5,0.8,1.2,0.8,1.9s-0.1,1.5-0.5,2.2
			c-0.5,0.9-1.2,1.6-2,1.9c-0.9,0.3-1.9,0.3-3-0.1c0.4,0.6,0.6,1.2,0.8,1.7c0.2,0.6,0.3,1.5,0.4,2.8l0.3,3.2l-3-1.6l-0.4-3.6
			c-0.1-1.3-0.3-2.1-0.4-2.5c-0.1-0.4-0.3-0.7-0.5-0.9c-0.2-0.2-0.6-0.5-1.2-0.8l-0.5-0.3l-2.7,5.2L374.3,233.1L374.3,233.1z"/>
		<path class="st4" d="M380.5,227.2l1.9,1c1.2,0.6,2,1,2.3,1c0.4,0.1,0.7,0,1-0.2c0.3-0.2,0.5-0.4,0.7-0.8c0.2-0.4,0.3-0.8,0.2-1.2
			c-0.1-0.4-0.3-0.7-0.7-1c-0.2-0.1-0.8-0.5-1.8-1l-2-1L380.5,227.2L380.5,227.2z"/>
	</g>
	<g>
		<path class="st5" d="M426.1,258.7c0.8-1.2,1.6-2.1,2.5-2.6c0.7-0.4,1.4-0.7,2.1-0.9c0.8-0.2,1.5-0.2,2.2,0
			c0.9,0.2,1.9,0.6,2.8,1.2c1.7,1.2,2.7,2.6,3,4.4c0.3,1.8-0.2,3.6-1.4,5.5c-1.3,1.9-2.8,3-4.5,3.4c-1.7,0.4-3.4,0-5.1-1.2
			c-1.7-1.2-2.7-2.6-3-4.4C424.4,262.3,424.9,260.6,426.1,258.7L426.1,258.7z"/>
		<path class="st4" d="M428.6,260.3c-0.9,1.3-1.3,2.5-1.1,3.6c0.1,1.1,0.7,1.9,1.6,2.6c0.9,0.6,1.9,0.8,3,0.5c1.1-0.3,2-1.1,2.9-2.4
			c0.9-1.3,1.3-2.5,1.1-3.6c-0.1-1-0.7-1.9-1.6-2.6s-2-0.9-3-0.6C430.4,258.1,429.5,258.9,428.6,260.3L428.6,260.3z"/>
	</g>
	<path class="st5" d="M301.8,204.5l2.2-9.8l7.3,1.7L311,198l-5.3-1.2l-0.5,2.2l4.9,1.1l-0.4,1.7l-4.9-1.1l-0.6,2.7l5.5,1.3l-0.4,1.7
		L301.8,204.5L301.8,204.5z"/>
</g>
</svg>
